<mxfile host="app.diagrams.net" agent="Mozilla/5.0 (Windows NT 10.0; Win64; x64) AppleWebKit/537.36 (KHTML, like Gecko) Chrome/140.0.0.0 Safari/537.36 Edg/140.0.0.0" version="28.2.2">
  <diagram name="Page-1" id="53BFVEpTq5tz7RWk_EQ7">
    <mxGraphModel dx="1196" dy="1695" grid="1" gridSize="10" guides="1" tooltips="1" connect="1" arrows="1" fold="1" page="1" pageScale="1" pageWidth="850" pageHeight="1100" math="0" shadow="0">
      <root>
        <mxCell id="0" />
        <mxCell id="1" parent="0" />
        <mxCell id="-XHT9bscHF6iOf8L_h3f-1" value="Product" style="swimlane;fontStyle=1;align=center;verticalAlign=top;childLayout=stackLayout;horizontal=1;startSize=26;horizontalStack=0;resizeParent=1;resizeParentMax=0;resizeLast=0;collapsible=1;marginBottom=0;whiteSpace=wrap;html=1;" parent="1" vertex="1">
          <mxGeometry x="650" y="-220" width="130" height="150" as="geometry" />
        </mxCell>
        <mxCell id="-XHT9bscHF6iOf8L_h3f-2" value="- id: int&lt;div&gt;- name: String&lt;/div&gt;&lt;div&gt;- price: double&lt;/div&gt;" style="text;strokeColor=none;fillColor=none;align=left;verticalAlign=top;spacingLeft=4;spacingRight=4;overflow=hidden;rotatable=0;points=[[0,0.5],[1,0.5]];portConstraint=eastwest;whiteSpace=wrap;html=1;" parent="-XHT9bscHF6iOf8L_h3f-1" vertex="1">
          <mxGeometry y="26" width="130" height="64" as="geometry" />
        </mxCell>
        <mxCell id="-XHT9bscHF6iOf8L_h3f-3" value="" style="line;strokeWidth=1;fillColor=none;align=left;verticalAlign=middle;spacingTop=-1;spacingLeft=3;spacingRight=3;rotatable=0;labelPosition=right;points=[];portConstraint=eastwest;strokeColor=inherit;" parent="-XHT9bscHF6iOf8L_h3f-1" vertex="1">
          <mxGeometry y="90" width="130" height="8" as="geometry" />
        </mxCell>
        <mxCell id="-XHT9bscHF6iOf8L_h3f-4" value="&lt;div&gt;&lt;span style=&quot;background-color: transparent; color: light-dark(rgb(0, 0, 0), rgb(255, 255, 255));&quot;&gt;+ getPrice(): double&lt;/span&gt;&lt;/div&gt;&lt;div&gt;&lt;span style=&quot;background-color: transparent; color: light-dark(rgb(0, 0, 0), rgb(255, 255, 255));&quot;&gt;+ getDescription(): String&lt;/span&gt;&lt;/div&gt;" style="text;strokeColor=none;fillColor=none;align=left;verticalAlign=top;spacingLeft=4;spacingRight=4;overflow=hidden;rotatable=0;points=[[0,0.5],[1,0.5]];portConstraint=eastwest;whiteSpace=wrap;html=1;" parent="-XHT9bscHF6iOf8L_h3f-1" vertex="1">
          <mxGeometry y="98" width="130" height="52" as="geometry" />
        </mxCell>
        <mxCell id="-XHT9bscHF6iOf8L_h3f-5" value="Cart" style="swimlane;fontStyle=1;align=center;verticalAlign=top;childLayout=stackLayout;horizontal=1;startSize=26;horizontalStack=0;resizeParent=1;resizeParentMax=0;resizeLast=0;collapsible=1;marginBottom=0;whiteSpace=wrap;html=1;" parent="1" vertex="1">
          <mxGeometry x="340" y="-180" width="150" height="120" as="geometry" />
        </mxCell>
        <mxCell id="-XHT9bscHF6iOf8L_h3f-6" value="- items: List&amp;lt;Product&amp;gt;" style="text;strokeColor=none;fillColor=none;align=left;verticalAlign=top;spacingLeft=4;spacingRight=4;overflow=hidden;rotatable=0;points=[[0,0.5],[1,0.5]];portConstraint=eastwest;whiteSpace=wrap;html=1;" parent="-XHT9bscHF6iOf8L_h3f-5" vertex="1">
          <mxGeometry y="26" width="150" height="34" as="geometry" />
        </mxCell>
        <mxCell id="-XHT9bscHF6iOf8L_h3f-7" value="" style="line;strokeWidth=1;fillColor=none;align=left;verticalAlign=middle;spacingTop=-1;spacingLeft=3;spacingRight=3;rotatable=0;labelPosition=right;points=[];portConstraint=eastwest;strokeColor=inherit;" parent="-XHT9bscHF6iOf8L_h3f-5" vertex="1">
          <mxGeometry y="60" width="150" height="8" as="geometry" />
        </mxCell>
        <mxCell id="-XHT9bscHF6iOf8L_h3f-8" value="+ addItem (Product)&lt;div&gt;+ removeItem (Product)&lt;/div&gt;&lt;div&gt;+ getTotal(): double&lt;/div&gt;" style="text;strokeColor=none;fillColor=none;align=left;verticalAlign=top;spacingLeft=4;spacingRight=4;overflow=hidden;rotatable=0;points=[[0,0.5],[1,0.5]];portConstraint=eastwest;whiteSpace=wrap;html=1;" parent="-XHT9bscHF6iOf8L_h3f-5" vertex="1">
          <mxGeometry y="68" width="150" height="52" as="geometry" />
        </mxCell>
        <mxCell id="-XHT9bscHF6iOf8L_h3f-9" value="Order" style="swimlane;fontStyle=1;align=center;verticalAlign=top;childLayout=stackLayout;horizontal=1;startSize=26;horizontalStack=0;resizeParent=1;resizeParentMax=0;resizeLast=0;collapsible=1;marginBottom=0;whiteSpace=wrap;html=1;" parent="1" vertex="1">
          <mxGeometry x="530" y="20" width="200" height="150" as="geometry" />
        </mxCell>
        <mxCell id="-XHT9bscHF6iOf8L_h3f-10" value="&lt;div&gt;- id: int&amp;nbsp;&lt;/div&gt;&lt;div&gt;- user: User&lt;/div&gt;&lt;div&gt;- items: List&amp;lt;Product&amp;gt;&lt;/div&gt;&lt;div&gt;- totalPrice: double&lt;/div&gt;" style="text;strokeColor=none;fillColor=none;align=left;verticalAlign=top;spacingLeft=4;spacingRight=4;overflow=hidden;rotatable=0;points=[[0,0.5],[1,0.5]];portConstraint=eastwest;whiteSpace=wrap;html=1;" parent="-XHT9bscHF6iOf8L_h3f-9" vertex="1">
          <mxGeometry y="26" width="200" height="64" as="geometry" />
        </mxCell>
        <mxCell id="-XHT9bscHF6iOf8L_h3f-11" value="" style="line;strokeWidth=1;fillColor=none;align=left;verticalAlign=middle;spacingTop=-1;spacingLeft=3;spacingRight=3;rotatable=0;labelPosition=right;points=[];portConstraint=eastwest;strokeColor=inherit;" parent="-XHT9bscHF6iOf8L_h3f-9" vertex="1">
          <mxGeometry y="90" width="200" height="8" as="geometry" />
        </mxCell>
        <mxCell id="-XHT9bscHF6iOf8L_h3f-12" value="&lt;div&gt;+ calculateTotal(): double&lt;/div&gt;&lt;div&gt;+ applyDiscount(DiscountStrategy)&lt;/div&gt;" style="text;strokeColor=none;fillColor=none;align=left;verticalAlign=top;spacingLeft=4;spacingRight=4;overflow=hidden;rotatable=0;points=[[0,0.5],[1,0.5]];portConstraint=eastwest;whiteSpace=wrap;html=1;" parent="-XHT9bscHF6iOf8L_h3f-9" vertex="1">
          <mxGeometry y="98" width="200" height="52" as="geometry" />
        </mxCell>
        <mxCell id="-XHT9bscHF6iOf8L_h3f-13" value="User" style="swimlane;fontStyle=1;align=center;verticalAlign=top;childLayout=stackLayout;horizontal=1;startSize=26;horizontalStack=0;resizeParent=1;resizeParentMax=0;resizeLast=0;collapsible=1;marginBottom=0;whiteSpace=wrap;html=1;" parent="1" vertex="1">
          <mxGeometry x="120" y="-140" width="130" height="130" as="geometry" />
        </mxCell>
        <mxCell id="-XHT9bscHF6iOf8L_h3f-14" value="&lt;div&gt;- id: int&lt;/div&gt;&lt;div&gt;- name: String&lt;/div&gt;&lt;div&gt;- cart: Cart&lt;/div&gt;" style="text;strokeColor=none;fillColor=none;align=left;verticalAlign=top;spacingLeft=4;spacingRight=4;overflow=hidden;rotatable=0;points=[[0,0.5],[1,0.5]];portConstraint=eastwest;whiteSpace=wrap;html=1;" parent="-XHT9bscHF6iOf8L_h3f-13" vertex="1">
          <mxGeometry y="26" width="130" height="54" as="geometry" />
        </mxCell>
        <mxCell id="-XHT9bscHF6iOf8L_h3f-15" value="" style="line;strokeWidth=1;fillColor=none;align=left;verticalAlign=middle;spacingTop=-1;spacingLeft=3;spacingRight=3;rotatable=0;labelPosition=right;points=[];portConstraint=eastwest;strokeColor=inherit;" parent="-XHT9bscHF6iOf8L_h3f-13" vertex="1">
          <mxGeometry y="80" width="130" height="8" as="geometry" />
        </mxCell>
        <mxCell id="-XHT9bscHF6iOf8L_h3f-16" value="&lt;div&gt;+ addToCart(Product)&amp;nbsp;&lt;/div&gt;&lt;div&gt;+checkout()&lt;/div&gt;" style="text;strokeColor=none;fillColor=none;align=left;verticalAlign=top;spacingLeft=4;spacingRight=4;overflow=hidden;rotatable=0;points=[[0,0.5],[1,0.5]];portConstraint=eastwest;whiteSpace=wrap;html=1;" parent="-XHT9bscHF6iOf8L_h3f-13" vertex="1">
          <mxGeometry y="88" width="130" height="42" as="geometry" />
        </mxCell>
        <mxCell id="-XHT9bscHF6iOf8L_h3f-17" value="PaymentService" style="swimlane;fontStyle=1;align=center;verticalAlign=top;childLayout=stackLayout;horizontal=1;startSize=26;horizontalStack=0;resizeParent=1;resizeParentMax=0;resizeLast=0;collapsible=1;marginBottom=0;whiteSpace=wrap;html=1;" parent="1" vertex="1">
          <mxGeometry x="530" y="220" width="180" height="88" as="geometry" />
        </mxCell>
        <mxCell id="-XHT9bscHF6iOf8L_h3f-18" value="-" style="text;strokeColor=none;fillColor=none;align=left;verticalAlign=top;spacingLeft=4;spacingRight=4;overflow=hidden;rotatable=0;points=[[0,0.5],[1,0.5]];portConstraint=eastwest;whiteSpace=wrap;html=1;" parent="-XHT9bscHF6iOf8L_h3f-17" vertex="1">
          <mxGeometry y="26" width="180" height="24" as="geometry" />
        </mxCell>
        <mxCell id="-XHT9bscHF6iOf8L_h3f-19" value="" style="line;strokeWidth=1;fillColor=none;align=left;verticalAlign=middle;spacingTop=-1;spacingLeft=3;spacingRight=3;rotatable=0;labelPosition=right;points=[];portConstraint=eastwest;strokeColor=inherit;" parent="-XHT9bscHF6iOf8L_h3f-17" vertex="1">
          <mxGeometry y="50" width="180" height="8" as="geometry" />
        </mxCell>
        <mxCell id="-XHT9bscHF6iOf8L_h3f-20" value="+ pay(Order, PaymentMethod)" style="text;strokeColor=none;fillColor=none;align=left;verticalAlign=top;spacingLeft=4;spacingRight=4;overflow=hidden;rotatable=0;points=[[0,0.5],[1,0.5]];portConstraint=eastwest;whiteSpace=wrap;html=1;" parent="-XHT9bscHF6iOf8L_h3f-17" vertex="1">
          <mxGeometry y="58" width="180" height="30" as="geometry" />
        </mxCell>
        <mxCell id="-XHT9bscHF6iOf8L_h3f-21" value="OrdnerRepository" style="swimlane;fontStyle=1;align=center;verticalAlign=top;childLayout=stackLayout;horizontal=1;startSize=26;horizontalStack=0;resizeParent=1;resizeParentMax=0;resizeLast=0;collapsible=1;marginBottom=0;whiteSpace=wrap;html=1;" parent="1" vertex="1">
          <mxGeometry x="80" y="40" width="160" height="100" as="geometry" />
        </mxCell>
        <mxCell id="-XHT9bscHF6iOf8L_h3f-22" value="&lt;div&gt;- orders: List&amp;lt;Order&amp;gt;&lt;/div&gt;&lt;div&gt;&lt;br&gt;&lt;/div&gt;" style="text;strokeColor=none;fillColor=none;align=left;verticalAlign=top;spacingLeft=4;spacingRight=4;overflow=hidden;rotatable=0;points=[[0,0.5],[1,0.5]];portConstraint=eastwest;whiteSpace=wrap;html=1;" parent="-XHT9bscHF6iOf8L_h3f-21" vertex="1">
          <mxGeometry y="26" width="160" height="26" as="geometry" />
        </mxCell>
        <mxCell id="-XHT9bscHF6iOf8L_h3f-23" value="" style="line;strokeWidth=1;fillColor=none;align=left;verticalAlign=middle;spacingTop=-1;spacingLeft=3;spacingRight=3;rotatable=0;labelPosition=right;points=[];portConstraint=eastwest;strokeColor=inherit;" parent="-XHT9bscHF6iOf8L_h3f-21" vertex="1">
          <mxGeometry y="52" width="160" height="8" as="geometry" />
        </mxCell>
        <mxCell id="-XHT9bscHF6iOf8L_h3f-24" value="&lt;div&gt;+ save(Order)&lt;/div&gt;&lt;div&gt;+ findById(int)&lt;/div&gt;" style="text;strokeColor=none;fillColor=none;align=left;verticalAlign=top;spacingLeft=4;spacingRight=4;overflow=hidden;rotatable=0;points=[[0,0.5],[1,0.5]];portConstraint=eastwest;whiteSpace=wrap;html=1;" parent="-XHT9bscHF6iOf8L_h3f-21" vertex="1">
          <mxGeometry y="60" width="160" height="40" as="geometry" />
        </mxCell>
        <mxCell id="-XHT9bscHF6iOf8L_h3f-25" value="DiscountStrategy" style="swimlane;fontStyle=1;align=center;verticalAlign=top;childLayout=stackLayout;horizontal=1;startSize=26;horizontalStack=0;resizeParent=1;resizeParentMax=0;resizeLast=0;collapsible=1;marginBottom=0;whiteSpace=wrap;html=1;" parent="1" vertex="1">
          <mxGeometry x="265" y="180" width="200" height="90" as="geometry" />
        </mxCell>
        <mxCell id="-XHT9bscHF6iOf8L_h3f-26" value="-" style="text;strokeColor=none;fillColor=none;align=left;verticalAlign=top;spacingLeft=4;spacingRight=4;overflow=hidden;rotatable=0;points=[[0,0.5],[1,0.5]];portConstraint=eastwest;whiteSpace=wrap;html=1;" parent="-XHT9bscHF6iOf8L_h3f-25" vertex="1">
          <mxGeometry y="26" width="200" height="26" as="geometry" />
        </mxCell>
        <mxCell id="-XHT9bscHF6iOf8L_h3f-27" value="" style="line;strokeWidth=1;fillColor=none;align=left;verticalAlign=middle;spacingTop=-1;spacingLeft=3;spacingRight=3;rotatable=0;labelPosition=right;points=[];portConstraint=eastwest;strokeColor=inherit;" parent="-XHT9bscHF6iOf8L_h3f-25" vertex="1">
          <mxGeometry y="52" width="200" height="8" as="geometry" />
        </mxCell>
        <mxCell id="-XHT9bscHF6iOf8L_h3f-28" value="+ calculateDiscount(Order): double" style="text;strokeColor=none;fillColor=none;align=left;verticalAlign=top;spacingLeft=4;spacingRight=4;overflow=hidden;rotatable=0;points=[[0,0.5],[1,0.5]];portConstraint=eastwest;whiteSpace=wrap;html=1;" parent="-XHT9bscHF6iOf8L_h3f-25" vertex="1">
          <mxGeometry y="60" width="200" height="30" as="geometry" />
        </mxCell>
        <mxCell id="-XHT9bscHF6iOf8L_h3f-30" value="" style="endArrow=open;html=1;endSize=12;startArrow=diamondThin;startSize=14;startFill=0;edgeStyle=orthogonalEdgeStyle;align=left;verticalAlign=bottom;rounded=0;exitX=0.992;exitY=0.951;exitDx=0;exitDy=0;exitPerimeter=0;entryX=-0.002;entryY=0.038;entryDx=0;entryDy=0;entryPerimeter=0;" parent="1" source="-XHT9bscHF6iOf8L_h3f-14" target="-XHT9bscHF6iOf8L_h3f-8" edge="1">
          <mxGeometry x="-1" y="3" relative="1" as="geometry">
            <mxPoint x="265" y="-75.5" as="sourcePoint" />
            <mxPoint x="370" y="-63" as="targetPoint" />
          </mxGeometry>
        </mxCell>
        <mxCell id="-XHT9bscHF6iOf8L_h3f-31" value="" style="endArrow=open;html=1;endSize=12;startArrow=diamondThin;startSize=14;startFill=0;edgeStyle=orthogonalEdgeStyle;align=left;verticalAlign=bottom;rounded=0;entryX=-0.008;entryY=-0.026;entryDx=0;entryDy=0;entryPerimeter=0;" parent="1" target="-XHT9bscHF6iOf8L_h3f-4" edge="1">
          <mxGeometry x="-1" y="3" relative="1" as="geometry">
            <mxPoint x="490" y="-120.5" as="sourcePoint" />
            <mxPoint x="650" y="-120.5" as="targetPoint" />
            <Array as="points">
              <mxPoint x="629" y="-120" />
            </Array>
          </mxGeometry>
        </mxCell>
        <mxCell id="-XHT9bscHF6iOf8L_h3f-32" value="" style="endArrow=open;html=1;endSize=12;startArrow=diamondThin;startSize=14;startFill=0;edgeStyle=orthogonalEdgeStyle;align=left;verticalAlign=bottom;rounded=0;exitX=0.5;exitY=0;exitDx=0;exitDy=0;" parent="1" source="-XHT9bscHF6iOf8L_h3f-9" target="-XHT9bscHF6iOf8L_h3f-4" edge="1">
          <mxGeometry x="-1" y="3" relative="1" as="geometry">
            <mxPoint x="590" y="60" as="sourcePoint" />
            <mxPoint x="750" y="60" as="targetPoint" />
          </mxGeometry>
        </mxCell>
        <mxCell id="-XHT9bscHF6iOf8L_h3f-33" value="" style="endArrow=open;endSize=12;dashed=1;html=1;rounded=0;exitX=0.002;exitY=0.667;exitDx=0;exitDy=0;exitPerimeter=0;entryX=0.5;entryY=0;entryDx=0;entryDy=0;" parent="1" source="-XHT9bscHF6iOf8L_h3f-10" target="-XHT9bscHF6iOf8L_h3f-25" edge="1">
          <mxGeometry width="160" relative="1" as="geometry">
            <mxPoint x="130" y="190" as="sourcePoint" />
            <mxPoint x="290" y="190" as="targetPoint" />
          </mxGeometry>
        </mxCell>
        <mxCell id="-XHT9bscHF6iOf8L_h3f-34" value="" style="endArrow=open;endSize=12;dashed=1;html=1;rounded=0;exitX=0.563;exitY=1.026;exitDx=0;exitDy=0;exitPerimeter=0;entryX=0.5;entryY=0;entryDx=0;entryDy=0;" parent="1" source="-XHT9bscHF6iOf8L_h3f-12" target="-XHT9bscHF6iOf8L_h3f-17" edge="1">
          <mxGeometry width="160" relative="1" as="geometry">
            <mxPoint x="705" y="180" as="sourcePoint" />
            <mxPoint x="540" y="271" as="targetPoint" />
          </mxGeometry>
        </mxCell>
        <mxCell id="-XHT9bscHF6iOf8L_h3f-37" value="" style="endArrow=open;html=1;endSize=12;startArrow=diamondThin;startSize=14;startFill=0;edgeStyle=orthogonalEdgeStyle;align=left;verticalAlign=bottom;rounded=0;exitX=1.017;exitY=1.031;exitDx=0;exitDy=0;exitPerimeter=0;entryX=-0.019;entryY=0.1;entryDx=0;entryDy=0;entryPerimeter=0;" parent="1" source="-XHT9bscHF6iOf8L_h3f-22" target="-XHT9bscHF6iOf8L_h3f-9" edge="1">
          <mxGeometry x="-1" y="3" relative="1" as="geometry">
            <mxPoint x="270" y="90" as="sourcePoint" />
            <mxPoint x="430" y="90" as="targetPoint" />
            <Array as="points">
              <mxPoint x="290" y="93" />
              <mxPoint x="290" y="102" />
              <mxPoint x="398" y="102" />
              <mxPoint x="398" y="35" />
            </Array>
          </mxGeometry>
        </mxCell>
      </root>
    </mxGraphModel>
  </diagram>
</mxfile>
